  0
SECTION
  2
HEADER
  9
$ACADVER
  1
AC1009
  9
$INSBASE
 10
0.0
 20
0.0
 30
0.0
  9
$EXTMIN
 10
0.0
 20
0.0
 30
0.0
  9
$EXTMAX
 10
0.0
 20
0.0
 30
0.0
  0
ENDSEC
  0
SECTION
  2
TABLES
  0
TABLE
  2
VPORT
 70
0
  0
ENDTAB
  0
TABLE
  2
LTYPE
 70
1
  0
LTYPE
  2
CONTINUOUS
 70
0
  3
Solid line
 72
65
 73
0
 40
0.0
  0
ENDTAB
  0
TABLE
  2
LAYER
 70
1
  0
LAYER
  2
0
 70
64
 62
7
  6
continuous
  0
ENDTAB
  0
TABLE
  2
STYLE
 70
1
  0
STYLE
  2
STANDARD
 70
0
 40
0
 41
1.0
 50
0.0
 71
0
 42
1
 3
ARIAL.TTF
 4

  0
ENDTAB
  0
TABLE
  2
VIEW
 70
0
  0
ENDTAB
  0
ENDSEC
  0
SECTION
  2
BLOCKS
  0
ENDSEC
  0
SECTION
  2
ENTITIES
  0
POLYLINE
  8
0
 62
0
 70
0
 66
1
 10
0.0
 20
0.0
 30
0.0
  0
VERTEX
  8
0
 10
-2.46430850029
 20
0.489366143942
 30
0.0
  0
VERTEX
  8
0
 10
-2.46430850029
 20
-0.751526713371
 30
0.0
  0
VERTEX
  8
0
 10
-2.46430850029
 20
-0.131080284715
 30
0.0
  0
VERTEX
  8
0
 10
-2.11476135254
 20
0.122341662645
 30
0.0
  0
VERTEX
  8
0
 10
-2.46430850029
 20
-0.131080284715
 30
0.0
  0
VERTEX
  8
0
 10
-2.027374506
 20
-0.72531068325
 30
0.0
  0
VERTEX
  8
0
 10
-1.62539482117
 20
-0.200989753008
 30
0.0
  0
VERTEX
  8
0
 10
-1.22341573238
 20
-0.148557603359
 30
0.0
  0
VERTEX
  8
0
 10
-1.62539482117
 20
-0.200989753008
 30
0.0
  0
VERTEX
  8
0
 10
-1.70404303074
 20
-0.594230413437
 30
0.0
  0
VERTEX
  8
0
 10
-1.58100974112
 20
-0.761555734146
 30
0.0
  0
VERTEX
  8
0
 10
-1.25837039948
 20
-0.761555734146
 30
0.0
  0
VERTEX
  8
0
 10
-1.10471943069
 20
-0.561141579082
 30
0.0
  0
VERTEX
  8
0
 10
-1.22341573238
 20
-0.148557603359
 30
0.0
  0
VERTEX
  8
0
 10
-1.04706227381
 20
-0.761555734146
 30
0.0
  0
VERTEX
  8
0
 10
-0.847652316093
 20
-0.367024719715
 30
0.0
  0
VERTEX
  8
0
 10
-0.847652316093
 20
-0.761555731297
 30
0.0
  0
VERTEX
  8
0
 10
-0.847652316093
 20
-0.564290225506
 30
0.0
  0
VERTEX
  8
0
 10
-0.692696460258
 20
-0.362174045151
 30
0.0
  0
VERTEX
  8
0
 10
-0.559448035511
 20
-0.543391953522
 30
0.0
  0
VERTEX
  8
0
 10
-0.559448035511
 20
-0.734049320221
 30
0.0
  0
VERTEX
  8
0
 10
-0.559448035511
 20
-0.543391953522
 30
0.0
  0
VERTEX
  8
0
 10
-0.428241331151
 20
-0.372252903764
 30
0.0
  0
VERTEX
  8
0
 10
-0.32182843404
 20
-0.516974484336
 30
0.0
  0
VERTEX
  8
0
 10
-0.32182843404
 20
-0.769004106522
 30
0.0
  0
VERTEX
  8
0
 10
-0.0752559464469
 20
-0.281162402043
 30
0.0
  0
VERTEX
  8
0
 10
-0.0752559464469
 20
-1.40692794323
 30
0.0
  0
VERTEX
  8
0
 10
-0.0752559464469
 20
-0.281162402043
 30
0.0
  0
VERTEX
  8
0
 10
0.288376510143
 20
-0.281162402043
 30
0.0
  0
VERTEX
  8
0
 10
0.453492420029
 20
-0.50572010233
 30
0.0
  0
VERTEX
  8
0
 10
0.256801165916
 20
-0.762273717398
 30
0.0
  0
VERTEX
  8
0
 10
-0.0752559464469
 20
-0.762273717398
 30
0.0
  0
VERTEX
  8
0
 10
0.777742683887
 20
-0.281162402043
 30
0.0
  0
VERTEX
  8
0
 10
0.653177444313
 20
-0.527613737251
 30
0.0
  0
VERTEX
  8
0
 10
0.707833409309
 20
-0.762273717398
 30
0.0
  0
VERTEX
  8
0
 10
1.013687253
 20
-0.762273717398
 30
0.0
  0
VERTEX
  8
0
 10
1.14127004178
 20
-0.595861510463
 30
0.0
  0
VERTEX
  8
0
 10
1.03116440773
 20
-0.281162402043
 30
0.0
  0
VERTEX
  8
0
 10
0.777742683887
 20
-0.281162402043
 30
0.0
  0
VERTEX
  8
0
 10
1.03116440773
 20
-0.281162402043
 30
0.0
  0
VERTEX
  8
0
 10
1.19949366259
 20
-0.762273717398
 30
0.0
  0
VERTEX
  8
0
 10
1.4129641865
 20
-0.64187131475
 30
0.0
  0
VERTEX
  8
0
 10
1.50644277684
 20
0.129841611038
 30
0.0
  0
VERTEX
  8
0
 10
1.44300977943
 20
0.216110511656
 30
0.0
  0
VERTEX
  8
0
 10
1.36524733281
 20
0.114681310411
 30
0.0
  0
VERTEX
  8
0
 10
1.57296276093
 20
-0.762273717398
 30
0.0
  0
VERTEX
  8
0
 10
1.97141130901
 20
-0.242558614196
 30
0.0
  0
VERTEX
  8
0
 10
1.90996773007
 20
-0.549776206251
 30
0.0
  0
VERTEX
  8
0
 10
1.95763593052
 20
-0.751026871321
 30
0.0
  0
VERTEX
  8
0
 10
2.23710274696
 20
-0.751026871321
 30
0.0
  0
VERTEX
  8
0
 10
2.35243418604
 20
-0.600594673607
 30
0.0
  0
VERTEX
  8
0
 10
2.23967280805
 20
-0.278305033968
 30
0.0
  0
VERTEX
  8
0
 10
1.97141130901
 20
-0.242558614196
 30
0.0
  0
VERTEX
  8
0
 10
2.23967280805
 20
-0.278305033968
 30
0.0
  0
VERTEX
  8
0
 10
2.50800180435
 20
-0.821436107159
 30
0.0
  0
SEQEND
  8
0
  0
ENDSEC
  0
EOF
